<svg width="18" height="18" viewBox="0 0 18 18" fill="none" xmlns="http://www.w3.org/2000/svg">
<path d="M15.0301 5.11501L10.7101 2.09251C9.53255 1.26751 7.72505 1.31251 6.59255 2.19001L2.83505 5.12251C2.08505 5.70751 1.49255 6.90751 1.49255 7.85251V13.0275C1.49255 14.94 3.04505 16.5 4.95755 16.5H13.0426C14.9551 16.5 16.5076 14.9475 16.5076 13.035V7.95001C16.5076 6.93751 15.8551 5.69251 15.0301 5.11501ZM9.56255 13.5C9.56255 13.8075 9.30755 14.0625 9.00005 14.0625C8.69255 14.0625 8.43755 13.8075 8.43755 13.5V11.25C8.43755 10.9425 8.69255 10.6875 9.00005 10.6875C9.30755 10.6875 9.56255 10.9425 9.56255 11.25V13.5Z" fill="#333333"/>
</svg>
